<svg width="24" height="14" viewBox="0 0 24 14" fill="none" xmlns="http://www.w3.org/2000/svg">
<path d="M17.532 10.104C17.2659 10.1039 17.0107 9.99805 16.8226 9.80976C16.6345 9.62148 16.5289 9.36618 16.529 9.10004C16.5291 8.83389 16.635 8.5787 16.8233 8.3906C17.0116 8.2025 17.2669 8.0969 17.533 8.09704C17.7991 8.09704 18.0544 8.20276 18.2426 8.39095C18.4308 8.57915 18.5365 8.83439 18.5365 9.10054C18.5365 9.36668 18.4308 9.62193 18.2426 9.81012C18.0544 9.99831 17.7991 10.104 17.533 10.104H17.532ZM6.488 10.104C6.35622 10.104 6.22574 10.0779 6.10402 10.0275C5.98229 9.97697 5.8717 9.903 5.77856 9.80976C5.59047 9.62148 5.48487 9.36618 5.485 9.10004C5.48513 8.83389 5.59099 8.5787 5.77927 8.3906C5.96756 8.2025 6.22286 8.0969 6.489 8.09704C6.75514 8.09704 7.01039 8.20276 7.19858 8.39095C7.38677 8.57915 7.4925 8.83439 7.4925 9.10054C7.4925 9.36668 7.38677 9.62193 7.19858 9.81012C7.01039 9.99831 6.75414 10.104 6.488 10.104ZM17.888 4.08604L19.894 0.627036C19.948 0.531426 19.9618 0.418291 19.9323 0.31252C19.9029 0.20675 19.8326 0.117008 19.737 0.0630363C19.6414 0.00906475 19.5283 -0.00471505 19.4225 0.0247282C19.3167 0.0541714 19.227 0.124426 19.173 0.220036L17.146 3.72004C15.5362 2.98422 13.786 2.6062 12.016 2.61204C10.166 2.61204 8.421 3.01004 6.875 3.71004L4.848 0.210036C4.82128 0.16276 4.7855 0.121211 4.74272 0.0877608C4.69994 0.0543104 4.65099 0.0296141 4.59866 0.0150817C4.54634 0.000549381 4.49166 -0.00353452 4.43776 0.00306355C4.38385 0.00966161 4.33178 0.0268123 4.2845 0.0535363C4.23722 0.0802603 4.19567 0.116034 4.16222 0.158816C4.12877 0.201597 4.10408 0.250548 4.08955 0.302874C4.07501 0.3552 4.07093 0.409876 4.07753 0.46378C4.08413 0.517684 4.10128 0.56976 4.128 0.617036L6.123 4.07504C2.696 5.94504 0.345 9.41504 0 13.521H24C23.666 9.42504 21.325 5.95604 17.888 4.08604Z" fill="black"/>
</svg>
