<svg width="35" height="35" viewBox="0 0 35 35" fill="none" xmlns="http://www.w3.org/2000/svg">
<path d="M13.8833 18.3557C13.3778 18.2002 12.6 18.0835 11.6278 18.0835H8.08887V23.3724H11.8611C12.5222 23.3724 12.9889 23.3335 13.2611 23.2946C13.7278 23.2168 14.1166 23.0613 14.4278 22.8668C14.7389 22.6724 15.0111 22.4002 15.2055 22.0113C15.4 21.6224 15.5166 21.1946 15.5166 20.7279C15.5166 20.1446 15.3611 19.6391 15.0889 19.2502C14.8166 18.8613 14.3889 18.5113 13.8833 18.3557Z" fill="#A6DAF0"/>
<path d="M13.3389 16.0614C13.8444 15.9058 14.2333 15.6336 14.5055 15.2836C14.7778 14.9336 14.8944 14.467 14.8944 13.9225C14.8944 13.417 14.7778 12.9503 14.5444 12.5614C14.3111 12.1725 13.9611 11.9003 13.4944 11.7836C13.0278 11.6281 12.25 11.5503 11.1611 11.5503H8.08887V16.2558H11.3944C12.2889 16.2558 12.95 16.1781 13.3389 16.0614Z" fill="#A6DAF0"/>
<path d="M0 0V35H34.3V0H0ZM17.15 22.75C16.8389 23.3722 16.4889 23.8389 16.0222 24.1889C15.5556 24.5389 15.0111 24.7722 14.35 24.9667C13.6889 25.1222 12.8333 25.2389 11.8611 25.2389H6.02778V25.2V9.8H11.7833C12.95 9.8 13.8833 9.95556 14.6222 10.2667C15.3222 10.5778 15.9056 11.0444 16.2944 11.7056C16.6833 12.3667 16.9167 13.0278 16.9167 13.7278C16.9167 14.3889 16.7222 15.0111 16.3722 15.5944C16.0222 16.1778 15.4778 16.6444 14.7389 16.9944C15.6722 17.2667 16.3722 17.7333 16.8778 18.3944C17.3833 19.0556 17.6167 19.8333 17.6167 20.7278C17.6167 21.4667 17.4611 22.1278 17.15 22.75ZM28.3111 17.9278H24.1111V22.1278H22.3222V17.9278H18.1222V16.1778H22.3222V11.9778H24.1111V16.1778H28.3111V17.9278Z" fill="#A6DAF0"/>
</svg>
