<svg width="45" height="35" viewBox="0 0 45 35" fill="none" xmlns="http://www.w3.org/2000/svg">
<path fill-rule="evenodd" clip-rule="evenodd" d="M11.3849 -0.143066C16.002 -0.143066 19.5598 1.44612 21.1094 2.68573C21.3782 2.89234 21.5047 3.2261 21.5048 3.55982V33.5486C21.5048 34.4544 20.5876 35.0821 19.7337 34.7804C17.6307 34.0253 14.0651 32.9129 11.3849 32.9129C8.34101 32.9129 4.39581 33.8742 1.90537 34.7089C1.01196 35.0026 0 34.3433 0 33.3976V3.97305C0 3.01157 0.537594 2.12155 1.431 1.77193C3.66054 0.913742 7.39227 -0.143066 11.3849 -0.143066ZM10.6388 9.24929L5.8714 11.4662V14.7083L9.71376 13.0157H9.78495V25.841H13.6985V9.24929H10.6388Z" fill="#A6DAF0"/>
<path d="M34.7723 12.1577C35.3256 12.1577 35.7764 12.3485 36.1244 12.7298C36.472 13.0954 36.7251 13.6834 36.8834 14.4939C37.0413 15.2885 37.1206 16.3136 37.1206 17.569C37.1206 18.8404 37.0413 19.8813 36.8834 20.692C36.7251 21.4867 36.472 22.0745 36.1244 22.456C35.7764 22.8216 35.3256 23.0042 34.7723 23.0042C34.219 23.0042 33.7681 22.8216 33.4205 22.456C33.0725 22.0745 32.8194 21.4867 32.6615 20.692C32.5033 19.8813 32.4243 18.8404 32.4243 17.569C32.4243 16.3136 32.5033 15.2885 32.6615 14.4939C32.8194 13.6834 33.0725 13.0954 33.4205 12.7298C33.7681 12.3485 34.219 12.1577 34.7723 12.1577Z" fill="#A6DAF0"/>
<path fill-rule="evenodd" clip-rule="evenodd" d="M34.1544 -0.143066C38.1471 -0.143066 41.8787 0.91378 44.1082 1.77992C45.0016 2.12162 45.5393 3.01157 45.5393 3.97305V33.3976C45.5393 34.3433 44.5272 35.0106 43.6339 34.7089C41.1436 33.8742 37.1984 32.9129 34.1544 32.9129C31.4744 32.9129 27.9087 34.0253 25.8055 34.7804C24.9596 35.0821 24.0344 34.4544 24.0344 33.5486V3.55982C24.0344 3.2261 24.1691 2.89234 24.4299 2.68573C25.9793 1.44612 29.5371 -0.143066 34.1544 -0.143066ZM34.7723 9.05858C33.3332 9.05858 32.1397 9.4241 31.191 10.1551C30.2578 10.8862 29.5542 11.8954 29.0798 13.1826C28.6214 14.4699 28.3922 15.932 28.3922 17.5688C28.3922 19.2218 28.6214 20.6998 29.0798 22.0028C29.5542 23.2902 30.2578 24.2995 31.191 25.0303C32.1397 25.7615 33.3332 26.1271 34.7723 26.1271C36.2113 26.1271 37.3972 25.7615 38.33 25.0303C39.2788 24.2995 39.9823 23.2902 40.4412 22.0028C40.8996 20.6998 41.1288 19.2218 41.1288 17.5688C41.1288 15.932 40.8996 14.4699 40.4412 13.1826C39.9823 11.8954 39.2788 10.8862 38.33 10.1551C37.3972 9.4241 36.2113 9.05858 34.7723 9.05858Z" fill="#A6DAF0"/>
</svg>
