<svg width="33" height="34" viewBox="0 0 33 34" fill="none" xmlns="http://www.w3.org/2000/svg">
<g clip-path="url(#clip0_2405_63)">
<path d="M27.3617 0.0224071C30.0715 0.17884 32.5354 2.37134 32.9126 5.07551C33.4218 7.84853 31.6428 10.7629 28.9875 11.6705C27.6326 12.2034 26.0756 11.9964 24.7903 12.744C23.5673 13.3644 22.953 14.6444 22.1375 15.6747C20.1482 14.5662 18.4299 12.911 17.4009 10.8656C18.5338 10.083 19.806 9.31305 20.3703 7.98948C21.0351 6.75717 20.7874 5.29224 21.2966 4.0143C22.1741 1.57492 24.7439 -0.224056 27.3617 0.0224071Z" fill="#009AD8"/>
<path d="M11.6706 4.97202C13.8317 6.75226 14.5523 9.62223 16.1269 11.8534C17.9022 14.6452 20.5424 16.8108 23.4988 18.2582C25.0557 19.0608 26.7565 19.7521 27.92 21.1168C28.7951 22.1413 29.0859 23.7309 28.3804 24.9225C27.7848 25.9316 26.4987 26.4025 25.3784 26.1165C24.0866 25.8526 23.181 24.8211 22.2465 23.9754C20.8972 22.7288 19.416 21.6427 18.0085 20.4662C14.0659 17.2365 11.0758 13.0756 7.72796 9.27678C6.75718 8.19152 6.51642 6.44428 7.45583 5.26207C8.46735 3.9935 10.4472 4.04361 11.6706 4.97243L11.6706 4.97202Z" fill="#009AD8"/>
<path d="M12.9948 32.1494C10.5664 33.3491 7.59579 33.343 5.16701 32.1482C2.80055 30.9823 0.92458 28.7885 0.285405 26.2131C-0.485353 23.2951 0.317995 19.9521 2.50602 17.8342C4.57468 15.6535 7.86425 14.6859 10.7705 15.4921C11.4773 15.9606 11.8952 16.7595 12.3975 17.43C11.7763 17.8411 11.0984 18.4277 10.3053 18.1112C7.53224 17.3494 4.39095 18.9088 3.26252 21.5397C2.05831 24.0968 3.04416 27.3603 5.30429 28.9922C7.10449 30.3834 9.67423 30.6568 11.7197 29.6603C14.3411 28.4337 15.6936 25.2285 14.9111 22.4717C14.6434 21.7625 15.215 21.1962 15.5967 20.6695C15.5967 20.6695 16.6595 20.8728 17.427 22.1263C17.4327 22.1344 17.4376 22.1438 17.4433 22.152C17.469 22.1939 17.4922 22.2359 17.5171 22.2795L17.5134 22.2758C17.614 22.4673 17.6747 22.6848 17.6767 22.9394C18.3424 26.6168 16.3206 30.4889 12.9939 32.1502L12.9948 32.1494Z" fill="#009AD8"/>
</g>
<defs>
<clipPath id="clip0_2405_63">
<rect width="33" height="33.0468" fill="white"/>
</clipPath>
</defs>
</svg>
