<svg width="35" height="35" viewBox="0 0 35 35" fill="none" xmlns="http://www.w3.org/2000/svg">
<path d="M17.8647 34.8571L19.769 32.948L16.9578 20.6755L22.1268 15.4938C22.9429 14.6756 22.9429 13.4029 22.1268 12.6756C21.3106 11.8575 20.0411 11.8575 19.3156 12.6756L14.1466 17.7665L1.90435 14.9483L0 16.8574L9.88451 22.0391L4.71554 27.2208L1.45094 26.7663L0 28.2208L4.26213 30.5844L6.6199 34.8571L8.07083 33.4025L7.61742 30.1299L12.7864 24.9481L17.8647 34.8571Z" fill="#A6DAF0"/>
<path d="M34.8226 16.5847C34.8226 7.22126 27.2052 -0.233151 17.8648 -0.142244C9.88463 -0.0513363 3.26474 5.58493 1.54175 13.0393L2.17653 13.2212L4.35294 13.7666C4.62499 12.4939 5.0784 11.2212 5.80387 10.1303V10.0394H9.88463L9.79395 10.2212C9.24985 11.6757 8.88711 13.2211 8.70575 14.7666L10.9728 15.312C11.1542 13.4939 11.6076 11.7666 12.3331 10.1303V10.0394H23.5778V10.1303C24.394 11.8575 24.8474 13.7666 25.0288 15.6757V15.8575H24.1219C23.9406 16.2211 23.7592 16.4938 23.4872 16.7665L21.9455 18.312H25.3915V18.4938C25.2101 20.4028 24.7567 22.3119 23.8499 24.0391V24.13H19.5878L20.1319 26.6755H22.0362L21.8549 26.8573C21.4014 27.4027 20.948 27.8572 20.4946 28.3118L21.4921 32.5844L21.6735 33.2208C29.3816 31.4935 34.9133 24.5846 34.8226 16.5847ZM32.1928 18.4029C32.0114 20.4028 31.3766 22.3119 30.3791 23.9482V24.0391H26.389L26.4797 23.8573C27.2052 22.1301 27.5679 20.221 27.7493 18.4029V18.312H32.2835L32.1928 18.4029ZM30.3791 9.94848C31.3766 11.7666 32.0114 13.6757 32.1928 15.5847V15.7666H27.6586V15.6757C27.5679 13.7666 27.1145 11.9484 26.4797 10.2212L26.389 10.0394H30.3791V9.94848ZM11.2449 7.40307L7.70823 7.49398L7.88959 7.31217C9.61258 5.49402 11.8797 4.13041 14.3281 3.40315L14.4188 3.67587C13.2399 4.67585 12.1517 5.94855 11.2449 7.40307ZM14.0561 7.40307L14.2374 7.22126C15.3256 5.85765 16.5952 4.76676 18.0461 3.94859H18.1368H18.2275C19.7691 4.76676 21.0387 5.85765 22.1269 7.22126L22.3083 7.40307H14.0561ZM25.0288 7.40307C24.1219 5.94855 23.0337 4.58494 21.7642 3.49405L21.8549 3.22133C24.3033 3.94859 26.4797 5.2213 28.2934 7.13035L28.4748 7.31217H25.0288V7.40307ZM28.2027 26.8573C26.4797 28.5845 24.3033 29.8572 21.9455 30.5845L21.8549 30.3117C23.0337 29.2209 24.1219 28.0391 24.9381 26.6755V26.5845H28.3841L28.2027 26.8573Z" fill="#A6DAF0"/>
<path d="M5.71305 23.5843C5.35032 22.8571 4.98759 22.1298 4.71554 21.4025L1.45093 19.6753C1.81366 21.6753 2.53913 23.5843 3.44597 25.2206L3.99007 25.3116L5.71305 23.5843Z" fill="#A6DAF0"/>
<path d="M11.0632 29.1304L9.43091 30.7667L9.52159 31.3121C11.2446 32.3121 13.0583 33.0394 15.0533 33.403L13.421 30.3122C12.6048 29.9485 11.7887 29.5849 11.0632 29.1304Z" fill="#A6DAF0"/>
</svg>
