<svg width="31" height="35" viewBox="0 0 31 35" fill="none" xmlns="http://www.w3.org/2000/svg">
<path d="M24.5501 22.5942C21.1522 22.5942 18.4338 25.3193 18.4338 28.7256C18.4338 32.1319 21.1522 34.8569 24.5501 34.8569C27.948 34.8569 30.6663 32.1319 30.6663 28.7256C30.5813 25.4044 27.863 22.5942 24.5501 22.5942ZM25.1447 32.1319H23.6156V30.599H25.1447V32.1319ZM26.8436 27.363C26.8436 28.5553 25.9942 29.0662 24.9748 29.2365L24.8898 29.8326H23.9554L23.7006 28.2998L23.7855 28.2146C24.9748 28.1295 25.3995 27.874 25.3995 27.363C25.3995 26.9373 25.0597 26.6818 24.5501 26.6818C24.0404 26.6818 23.5307 26.9373 23.106 27.363L22.2565 26.4263C22.7662 25.8302 23.5307 25.4044 24.5501 25.4044C25.9092 25.4044 26.8436 26.0857 26.8436 27.363Z" fill="#A6DAF0"/>
<path d="M13.1665 17.229C17.4988 17.229 20.9817 13.7376 20.9817 9.39455V-0.143066H5.35132V9.30939C5.35132 13.7376 8.83417 17.229 13.1665 17.229ZM10.0234 3.77417H12.1471V1.64524H14.2708V3.77417H16.3945V5.9031H14.2708V8.03204H12.1471V5.9031H10.0234V3.77417Z" fill="#A6DAF0"/>
<path d="M20.8121 21.9124C18.6885 20.3796 16.0551 19.4429 13.1669 19.4429C5.86138 19.4429 0 25.4039 0 32.6423C0 32.7274 0 32.8126 0 32.8977H18.0089C17.2444 31.7055 16.7347 30.2578 16.7347 28.725C16.7347 25.8297 18.3487 23.1898 20.8121 21.9124Z" fill="#A6DAF0"/>
</svg>
