<svg width="27" height="35" viewBox="0 0 27 35" fill="none" xmlns="http://www.w3.org/2000/svg">
<path d="M21.2373 20.2297C20.7269 25.465 18.1748 27.4282 15.0394 26.1194C13.1436 25.3014 12.2686 22.0293 14.6019 17.5303L21.2373 20.2297Z" fill="#A6DAF0"/>
<path d="M23.0604 0.352024C25.5395 1.74265 27.4354 6.97792 25.2479 12.1314C24.5187 13.931 23.2791 16.0579 22.0395 17.5303C20.2895 17.0395 17.0083 15.6489 15.4041 14.9944C15.1124 14.0946 15.2583 11.477 15.5499 9.75917C16.4249 3.95128 19.7062 -1.4476 23.0604 0.352024Z" fill="#A6DAF0"/>
<path d="M3.00836 27.9189C2.64378 33.1542 4.83128 35.6083 8.11253 34.872C10.0813 34.463 11.5396 31.3546 10.0084 26.5283L3.00836 27.9189Z" fill="#A6DAF0"/>
<path d="M4.46645 7.95954C1.76853 8.85935 -0.929383 13.6856 0.3102 19.1663C0.7477 21.0477 1.54978 23.42 2.57062 25.056C4.39353 24.8924 7.82062 24.1562 9.57062 23.7472C10.0081 22.9292 10.2998 20.3115 10.2998 18.5937C10.3727 12.8676 8.03937 6.81432 4.46645 7.95954Z" fill="#A6DAF0"/>
</svg>
