<svg width="28" height="35" viewBox="0 0 28 35" fill="none" xmlns="http://www.w3.org/2000/svg">
<path d="M17.6308 2.79934C17.3858 2.01636 16.9059 1.32772 16.2561 0.826913C15.6063 0.326109 14.8181 0.0374047 13.9985 0C13.1793 0.0378998 12.3916 0.32682 11.7422 0.82758C11.0928 1.32834 10.6131 2.01671 10.3681 2.79934H0V35H27.9998V2.79934H17.6308ZM19.5991 22.3993H15.3991V26.5992H12.5998V22.4002H8.39985V19.6H12.5998V15.4H15.3991V19.6H19.5991V22.3993ZM19.5991 8.39894H8.39985V5.60051H12.5998V4.19993C12.5998 3.82871 12.7472 3.4727 13.0097 3.21021C13.2722 2.94772 13.6282 2.80026 13.9995 2.80026C14.3707 2.80026 14.7267 2.94772 14.9892 3.21021C15.2517 3.4727 15.3991 3.82871 15.3991 4.19993V5.60051H19.5991V8.39894Z" fill="#A6DAF0"/>
</svg>
