<svg width="35" height="35" viewBox="0 0 35 35" fill="none" xmlns="http://www.w3.org/2000/svg">
<path fill-rule="evenodd" clip-rule="evenodd" d="M0 -0.143066H34.3319V26.6588H10.0015L0 34.8569V-0.143066ZM15.208 16.8929H18.5637C18.5718 16.2424 18.6626 15.692 18.836 15.2416C19.0094 14.7829 19.3312 14.3409 19.8019 13.9156C20.355 13.4069 20.8584 12.919 21.3125 12.452C21.7664 11.9766 22.1298 11.4679 22.4021 10.9258C22.6745 10.3754 22.8106 9.73743 22.8106 9.01188C22.8106 7.95275 22.5837 7.05626 22.1298 6.32237C21.6838 5.58847 21.0359 5.0339 20.1857 4.65861C19.3437 4.28332 18.3324 4.09567 17.152 4.09567C16.0872 4.09567 15.1214 4.27915 14.2546 4.6461C13.3961 5.0047 12.7109 5.56762 12.1991 6.33488C11.6874 7.09377 11.4191 8.06951 11.3943 9.26208H15.2823C15.2988 8.76169 15.3938 8.35724 15.5671 8.04865C15.7405 7.7401 15.9675 7.51493 16.2482 7.37315C16.5288 7.22303 16.8301 7.14799 17.152 7.14799C17.5401 7.14799 17.8619 7.2272 18.1179 7.38567C18.3821 7.53579 18.5802 7.76095 18.7123 8.06117C18.8526 8.35307 18.9227 8.72835 18.9227 9.18703C18.9227 9.57066 18.8441 9.92509 18.6873 10.2503C18.5305 10.5756 18.3076 10.8925 18.0187 11.201C17.7298 11.5013 17.3914 11.8224 17.0035 12.1643C16.5577 12.5729 16.2027 13.0024 15.9386 13.4527C15.6744 13.8948 15.4846 14.3951 15.369 14.9539C15.2617 15.5043 15.208 16.1506 15.208 16.8929ZM15.3566 19.3073C14.9604 19.6908 14.7623 20.1619 14.7623 20.7207C14.7623 21.2877 14.9604 21.7631 15.3566 22.1467C15.7611 22.5221 16.2853 22.7099 16.9292 22.7099C17.573 22.7099 18.0932 22.5221 18.4892 22.1467C18.8855 21.7631 19.0836 21.2877 19.0836 20.7207C19.0836 20.1619 18.8855 19.6908 18.4892 19.3073C18.0932 18.9235 17.573 18.7318 16.9292 18.7318C16.2853 18.7318 15.7611 18.9235 15.3566 19.3073Z" fill="#A6DAF0"/>
</svg>
