<svg width="30" height="33" viewBox="0 0 30 33" fill="none" xmlns="http://www.w3.org/2000/svg">
<path d="M0 0V30.0933H18.6648C18.2386 29.1528 18.0682 28.1269 17.983 27.101H10.483V24.1088H18.6648C18.2386 23.1684 17.983 22.1425 17.983 21.1166H16.4489V18.1244H18.6648C19.1761 16.9275 20.0284 15.8161 21.0511 15.0466V12.0544H24.0341V0H0ZM3.06818 3.07772H21.0511V9.06217H3.06818V3.07772ZM4.51705 12.0544H7.58523V15.0466H4.60227V12.0544H4.51705ZM10.5682 12.0544H13.5511V15.0466H10.5682V12.0544ZM16.5341 12.0544H19.517V15.0466H16.5341V12.0544ZM24.0341 15.0466V16.842C22.1591 17.3549 20.9659 19.1503 21.0511 21.0311C21.0511 23.8523 23.4375 24.7927 24.9716 25.3912C26.7614 26.1606 27.1023 26.3316 27.1023 27.0155C27.1023 27.8705 26.4205 28.5544 25.5682 28.5544C24.7159 28.5544 24.0341 27.8705 24.0341 27.0155H21.0511C21.0511 28.8964 22.2443 30.6062 24.0341 31.2047V33H27.017V31.2047C28.8068 30.6062 30 28.8964 30 27.0155C30 24.1943 27.6136 23.2539 26.0795 22.6554C24.2898 21.886 23.9489 21.715 23.9489 21.0311C23.9489 20.1762 24.6307 19.4922 25.483 19.4922C26.3352 19.4922 27.017 20.1762 27.017 21.0311H30C30 19.1503 28.8068 17.4404 27.017 16.842V15.0466H24.0341ZM4.51705 18.1244H7.58523V21.1166H4.60227L4.51705 18.1244ZM10.5682 18.1244H13.5511V21.1166H10.5682V18.1244ZM4.51705 24.1088H7.58523V27.101H4.60227L4.51705 24.1088Z" fill="#009AD8"/>
</svg>
