<svg width="37" height="36" viewBox="0 0 37 36" fill="none" xmlns="http://www.w3.org/2000/svg">
<g clip-path="url(#clip0_2405_40)">
<rect width="37" height="36" fill="white"/>
<path d="M7.0293 14.9393V21.0565H0.714844V14.9393H7.0293Z" fill="#A6DAF0" stroke="#009AD8" stroke-miterlimit="10"/>
<path d="M21.6592 0.709229V6.82642H15.3447V0.709229H21.6592Z" fill="#A6DAF0" stroke="#009AD8" stroke-miterlimit="10"/>
<path d="M21.6592 29.1736V35.2908H15.3447V29.1736H21.6592Z" fill="#A6DAF0" stroke="#009AD8" stroke-miterlimit="10"/>
<path d="M36.2847 14.9393V21.0565H29.9702V14.9393H36.2847Z" fill="#A6DAF0" stroke="#009AD8" stroke-miterlimit="10"/>
<path d="M14.3447 22.0561V26.3784L8.15723 32.3979L3.70117 28.0629L9.875 22.0561H14.3447ZM27.125 22.0561L33.2979 28.062L28.8418 32.3979L22.6553 26.3784V22.0561H27.125ZM33.2979 7.93695L27.125 13.9438H22.6553V9.62054L28.8418 3.60101L33.2979 7.93695ZM14.3447 9.62054V13.9438H9.875L3.70117 7.93597L8.15723 3.60101L14.3447 9.62054Z" fill="#A6DAF0" stroke="#009AD8" stroke-miterlimit="10"/>
</g>
<defs>
<clipPath id="clip0_2405_40">
<rect width="37" height="36" fill="white"/>
</clipPath>
</defs>
</svg>
