<?xml version="1.0" encoding="UTF-8"?>
<svg id="Vrstva_1" xmlns="http://www.w3.org/2000/svg" xmlns:xlink="http://www.w3.org/1999/xlink" version="1.1" viewBox="0 0 37 36">
  <!-- Generator: Adobe Illustrator 30.3.0, SVG Export Plug-In . SVG Version: 2.1.3 Build 182)  -->
  <defs>
    <style>
      .st0 {
        fill: none;
      }

      .st1 {
        fill: #009ad8;
        stroke: #009ad8;
        stroke-miterlimit: 10;
      }

      .st2 {
        clip-path: url(#clippath);
      }
    </style>
    <clipPath id="clippath">
      <rect class="st0" width="37" height="36"/>
    </clipPath>
  </defs>
  <g class="st2">
    <g>
      <path class="st1" d="M7.03,14.94v6.12H.71v-6.12h6.31Z"/>
      <path class="st1" d="M21.66.71v6.12h-6.31V.71h6.31Z"/>
      <path class="st1" d="M21.66,29.17v6.12h-6.31v-6.12h6.31Z"/>
      <path class="st1" d="M36.28,14.94v6.12h-6.31v-6.12h6.31Z"/>
      <path class="st1" d="M14.34,22.06v4.32l-6.19,6.02-4.46-4.33,6.17-6.01h4.47ZM27.12,22.06l6.17,6.01-4.46,4.34-6.19-6.02v-4.32h4.47ZM33.3,7.94l-6.17,6.01h-4.47v-4.32l6.19-6.02,4.46,4.34ZM14.34,9.62v4.32h-4.47L3.7,7.94l4.46-4.33,6.19,6.02Z"/>
    </g>
  </g>
</svg>