<svg width="35" height="35" viewBox="0 0 35 35" fill="none" xmlns="http://www.w3.org/2000/svg">
<path d="M5.86826 0C2.61976 0 0.10479 2.61976 0 5.86826V31.1228C0 33.2186 1.78144 35 3.87725 35H31.1228C33.2186 35 35 33.2186 35 31.1228V11.6317C35 9.53593 33.2186 7.75449 31.1228 7.75449H5.86826C4.82036 7.75449 3.87725 7.02096 3.87725 5.86826C3.87725 4.71557 4.61078 3.87725 5.76347 3.87725C5.86826 3.87725 5.86826 3.87725 5.97305 3.87725H33.1138V0H5.86826ZM29.1317 19.491C30.1796 19.491 31.1228 20.3293 31.1228 21.482C31.1228 22.5299 30.2844 23.4731 29.1317 23.4731C28.0838 23.4731 27.1407 22.6347 27.1407 21.482C27.2455 20.3293 28.0838 19.491 29.1317 19.491Z" fill="#A6DAF0"/>
</svg>
