<svg width="35" height="35" viewBox="0 0 35 35" fill="none" xmlns="http://www.w3.org/2000/svg">
<path d="M31.9753 0.108024C30.3549 0.108024 29.0586 1.51235 29.0586 3.13272C29.0586 3.45679 29.1667 3.78086 29.2747 4.10494L25.8179 7.56173C25.4938 7.4537 25.0617 7.34568 24.7377 7.34568C24.0895 7.34568 23.5494 7.56173 23.0093 7.8858L20.3086 6.26543C20.3086 6.15741 20.3086 6.04938 20.3086 5.94136C20.3086 4.32099 18.9043 3.02469 17.392 3.13272C15.8796 3.13272 14.5833 4.42901 14.5833 5.94136C14.5833 6.15741 14.5833 6.48148 14.6914 6.69753L11.5586 9.1821C10.1543 8.42592 8.42593 8.85802 7.66975 10.2623C7.4537 10.6944 7.34568 11.2346 7.34568 11.6667C7.34568 11.7747 7.34568 11.8827 7.34568 11.9907L4.53704 13.6111C4.10494 13.287 3.45679 13.071 2.91667 13.071C1.2963 13.071 0 14.3673 0 15.9877C0 17.608 1.2963 18.9043 2.91667 18.9043C4.53704 18.9043 5.83333 17.608 5.83333 15.9877C5.83333 15.8796 5.83333 15.6636 5.83333 15.5556L8.53395 13.9352C9.83025 14.9074 11.6667 14.5833 12.6389 13.287C13.179 12.5309 13.287 11.6667 13.071 10.8025L16.2037 8.3179C17.1759 8.85802 18.3642 8.75 19.2284 8.10185L21.929 9.72222C21.929 9.83025 21.929 9.93827 21.929 10.0463C21.929 11.6667 23.3333 12.963 24.9537 12.8549C26.5741 12.7469 27.8704 11.4506 27.7623 9.83025C27.7623 9.50617 27.6543 9.1821 27.5463 8.85802L31.0031 5.40123C32.5154 5.94136 34.2438 5.29321 34.7839 3.78086C35.3241 2.26852 34.6759 0.540123 33.1636 0C32.6235 0.108025 32.2994 0.108024 31.9753 0.108024ZM29.0586 16.0957V35H34.892V16.0957H29.0586ZM14.4753 18.9043V34.892H20.3086V18.9043H14.4753ZM21.713 21.821V34.892H27.5463V21.821H21.713ZM7.23765 23.3333V35H13.071V23.3333H7.23765ZM0 26.25V35H5.83333V26.25H0Z" fill="#A6DAF0"/>
</svg>
