<svg width="38" height="35" viewBox="0 0 38 35" fill="none" xmlns="http://www.w3.org/2000/svg">
<path d="M38.003 32.2041H0V35H38.003V32.2041Z" fill="#A6DAF0"/>
<path d="M7.45556 15.0146H3.10645V30.5472H7.45556V15.0146Z" fill="#A6DAF0"/>
<path d="M14.29 15.0146H9.94092V30.5472H14.29V15.0146Z" fill="#A6DAF0"/>
<path d="M21.2275 15.0146H16.8784V30.5472H21.2275V15.0146Z" fill="#A6DAF0"/>
<path d="M28.1658 15.0146H23.8167V30.5472H28.1658V15.0146Z" fill="#A6DAF0"/>
<path d="M35.1038 15.0146H30.7546V30.5472H35.1038V15.0146Z" fill="#A6DAF0"/>
<path d="M19.7781 0.2071C19.571 0.10355 19.2604 0 19.0533 0C18.8462 0 18.5355 0.10355 18.3284 0.2071L0 11.4941V13.4615H38.003V11.4941L19.7781 0.2071ZM18.432 6.62722C18.6391 6.73077 18.9497 6.83432 19.3639 6.93787C20.1923 7.14497 20.8136 7.35207 21.1243 7.66272C21.4349 7.97337 21.642 8.38757 21.642 9.00887C21.642 9.52663 21.4349 9.94083 21.1243 10.2515C20.8136 10.5621 20.2959 10.7692 19.6746 10.7692V12.0118H18.8462V10.7692C18.1213 10.6657 17.6035 10.4586 17.1893 10.1479C16.7751 9.83728 16.568 9.31953 16.568 8.69822H18.0177C18.0177 9.00887 18.1213 9.31953 18.3284 9.42308C18.5355 9.52663 18.8462 9.63018 19.2604 9.63018C19.571 9.63018 19.7781 9.52663 19.8817 9.42308C20.0888 9.31953 20.0888 9.11242 20.0888 9.00887C20.0888 8.80177 19.9852 8.59467 19.7781 8.49112C19.571 8.38757 19.2604 8.28402 18.8462 8.18047C18.432 8.07692 18.1213 7.97337 17.8106 7.86982C17.5 7.76627 17.2929 7.66272 17.0858 7.45562C16.8787 7.35207 16.7751 7.14497 16.6716 6.93787C16.568 6.73077 16.568 6.52367 16.568 6.21302C16.568 5.69527 16.7751 5.28106 17.0858 4.97041C17.5 4.65976 17.9142 4.45266 18.6391 4.34911V3.21006H19.4675V4.34911C20.0888 4.45266 20.6065 4.65976 20.9172 4.97041C21.2278 5.28106 21.4349 5.69527 21.4349 6.21302H20.0888C20.0888 6.00592 19.9852 5.79882 19.7781 5.59172C19.571 5.48816 19.3639 5.38461 19.0533 5.38461C18.7426 5.38461 18.5355 5.48816 18.432 5.59172C18.2248 5.69527 18.2249 5.90237 18.2249 6.00592C18.1213 6.31657 18.2248 6.52367 18.432 6.62722Z" fill="#A6DAF0"/>
</svg>
