<svg width="36" height="35" viewBox="0 0 36 35" fill="none" xmlns="http://www.w3.org/2000/svg">
<path d="M7.06722 6.95513C6.28196 6.95513 5.60889 6.28205 5.60889 5.60897V1.34615C5.60889 0.560897 6.28196 0 6.95504 0C7.7403 0 8.30119 0.673077 8.30119 1.34615V5.60897C8.41337 6.28205 7.85248 6.95513 7.06722 6.95513Z" fill="#A6DAF0"/>
<path d="M28.83 6.95513C28.0448 6.95513 27.4839 6.28205 27.4839 5.60897V1.34615C27.4839 0.560897 28.157 0 28.83 0C29.6153 0 30.1762 0.673077 30.1762 1.34615V5.60897C30.2884 6.28205 29.6153 6.95513 28.83 6.95513Z" fill="#A6DAF0"/>
<path d="M31.7468 3.47754V5.60895C31.7468 7.17946 30.4006 8.52562 28.8301 8.52562C27.2596 8.52562 25.9135 7.17946 25.9135 5.60895V3.47754H9.98397V5.60895C9.98397 7.17946 8.63782 8.52562 7.06731 8.52562C5.49679 8.52562 4.15064 7.17946 4.15064 5.60895V3.47754H0V35H35.8974V3.47754H31.7468ZM8.97436 30.9615H3.92628V26.4743H8.97436V30.9615ZM8.97436 24.0064H3.92628V19.5192H8.97436V24.0064ZM8.97436 16.9391H3.92628V12.4519H8.97436V16.9391ZM16.6026 30.9615H11.5545V26.4743H16.6026V30.9615ZM16.6026 24.0064H11.5545V19.5192H16.6026V24.0064ZM16.6026 16.9391H11.5545V12.4519H16.6026V16.9391ZM24.3429 30.9615H19.2949V26.4743H24.3429V30.9615ZM24.3429 24.0064H19.2949V19.5192H24.3429V24.0064ZM24.3429 16.9391H19.2949V12.4519H24.3429V16.9391ZM31.9712 30.9615H26.9231V26.4743H31.9712V30.9615ZM31.9712 24.0064H26.9231V19.5192H31.9712V24.0064ZM31.9712 16.9391H26.9231V12.4519H31.9712V16.9391Z" fill="#A6DAF0"/>
</svg>
