<svg width="31" height="35" viewBox="0 0 31 35" fill="none" xmlns="http://www.w3.org/2000/svg">
<path d="M15.1302 27.7995H4.92188V25.1562H13.5807C13.5807 24.974 13.5807 24.7917 13.5807 24.7005C13.5807 23.6979 13.9453 22.8776 14.6745 22.2396H4.92188V19.5964H15.9505C16.5885 18.6849 17.4089 17.8646 18.3203 17.2266C18.3203 17.1354 18.3203 17.0443 18.3203 16.9531C18.3203 16.862 18.3203 16.7708 18.3203 16.6797H4.92188V14.0365H22.6953C22.8776 13.8542 23.0599 13.763 23.151 13.763C23.4245 13.6719 23.6979 13.5807 23.9714 13.5807C24.7917 13.4896 25.612 13.9453 25.9766 14.7656C26.25 15.4036 26.25 16.0417 25.9766 16.5885C26.7057 16.862 27.4349 17.3177 27.9818 17.7734V2.82552H17.5911C16.9531 1.27604 15.6771 0 13.9453 0C12.2135 0 10.9375 1.27604 10.2995 2.82552H0V35H27.9818V30.7161C26.4323 31.8099 24.4271 32.1745 22.7865 32.1745C20.0521 32.2656 16.6797 31.0807 15.1302 27.7995ZM8.38542 5.5599H12.5781V4.19271C12.5781 3.3724 13.2161 2.82552 13.9453 2.82552C14.6745 2.82552 15.3125 3.46354 15.3125 4.19271V5.5599H19.5052V8.38542H8.38542V5.5599Z" fill="#A6DAF0"/>
<path d="M29.1664 23.1509C28.893 20.2342 26.5232 18.0467 23.5154 17.7733C23.6065 16.5884 24.3357 16.2238 24.3357 16.1326C24.6091 15.9504 24.7914 15.5858 24.6091 15.3123C24.518 15.13 24.2446 14.9478 23.9711 14.9478C23.88 14.9478 23.7888 14.9478 23.6977 15.0389C23.6065 15.0389 22.6951 15.5858 22.3305 16.953C21.7836 16.3149 20.8722 16.2238 20.4164 16.2238C20.0518 16.2238 19.7784 16.4972 19.8695 16.8618C19.8695 17.0441 19.9607 17.1353 20.0518 17.3175C20.143 17.4087 20.3253 17.4998 20.5076 17.4998C20.5076 17.4998 21.2367 17.4998 21.6013 17.9556C18.9581 18.5024 16.8617 20.5988 16.5883 23.242C15.8591 23.3332 15.3123 23.9712 15.3123 24.7004C15.3123 25.4295 15.8591 25.9764 16.4972 26.1587C17.3175 29.2577 20.4164 30.4425 22.8774 30.4425C25.3383 30.4425 28.4373 29.3488 29.2576 26.1587C29.8956 25.9764 30.4425 25.4295 30.4425 24.7004C30.3513 23.9712 29.8044 23.3332 29.1664 23.1509ZM19.0492 23.88C19.0492 23.242 19.5961 22.604 20.2341 22.604C20.8722 22.604 21.419 23.1509 21.419 23.88C21.419 24.5181 20.8722 25.0649 20.2341 25.0649C19.5961 25.0649 19.0492 24.6092 19.0492 23.88ZM24.9737 27.5259C24.7914 27.617 24.0623 28.1639 22.8774 28.1639C21.6925 28.1639 20.8722 27.617 20.781 27.5259C20.5076 27.3436 20.5076 26.979 20.6899 26.7967C20.781 26.7056 20.8722 26.6144 21.0544 26.6144C21.2367 26.6144 21.3279 26.6144 21.419 26.7056C21.5102 26.7056 22.057 27.1613 22.8774 27.1613C23.7888 27.1613 24.3357 26.7056 24.3357 26.7056C24.518 26.5233 24.8826 26.6144 25.0649 26.7967C25.2472 27.0701 25.156 27.3436 24.9737 27.5259ZM25.4294 25.1561C24.7914 25.1561 24.2445 24.6092 24.2445 23.88C24.2445 23.242 24.7914 22.6951 25.4294 22.6951C26.0675 22.6951 26.7055 23.242 26.7055 23.88C26.6143 24.6092 26.0675 25.1561 25.4294 25.1561Z" fill="#A6DAF0"/>
</svg>
