<svg width="35" height="35" viewBox="0 0 35 35" fill="none" xmlns="http://www.w3.org/2000/svg">
<path d="M0 0V35L9.62933 27.0097H35V0H0ZM17.2893 3.45011C17.7472 3.45011 18.1948 3.58586 18.5755 3.84021C18.9563 4.09455 19.2531 4.45607 19.4284 4.87907C19.6038 5.30206 19.6498 5.76755 19.5606 6.21667C19.4714 6.6658 19.2511 7.07841 18.9275 7.40235C18.6039 7.72629 18.1915 7.94701 17.7424 8.03662C17.2934 8.12623 16.8279 8.08069 16.4047 7.90578C15.9815 7.73086 15.6197 7.43441 15.365 7.05391C15.1103 6.6734 14.9741 6.22592 14.9736 5.76803C14.9733 5.46374 15.033 5.16238 15.1493 4.88117C15.2655 4.59996 15.436 4.34442 15.6511 4.12915C15.8661 3.91388 16.1215 3.74311 16.4026 3.6266C16.6837 3.51008 16.985 3.45011 17.2893 3.45011ZM20.9171 23.2578H14.0829V19.8407H15.7448V12.4199H14.0829V9.78651H19.2541V19.8407H20.9171V23.2578Z" fill="#A6DAF0"/>
</svg>
