<svg width="37" height="33" viewBox="0 0 37 33" fill="none" xmlns="http://www.w3.org/2000/svg">
<path d="M25.8474 6.25391C27.4916 6.25391 28.8246 4.85392 28.8246 3.12695C28.8246 1.39998 27.4916 0 25.8474 0C24.2031 0 22.8701 1.39998 22.8701 3.12695C22.8701 4.85392 24.2031 6.25391 25.8474 6.25391Z" fill="#A6DAF0"/>
<path d="M21.0166 7.92296C21.0008 7.07666 20.7381 6.25584 20.2639 5.57139C19.7898 4.88695 19.127 4.37187 18.3651 4.09576C17.6033 3.81964 16.7791 3.79581 16.0039 4.02746C15.2288 4.25912 14.54 4.7351 14.0307 5.3911C13.5214 6.0471 13.216 6.8515 13.156 7.6956C13.0959 8.5397 13.284 9.38282 13.6948 10.111C14.1056 10.8393 14.7194 11.4175 15.4532 11.7676C16.1869 12.1177 17.0053 12.2228 17.7978 12.0687C18.0373 11.1839 18.4463 10.3598 18.9998 9.64689C19.5533 8.93401 20.2395 8.34738 21.0166 7.92296Z" fill="#A6DAF0"/>
<path d="M36.095 14.2024C35.7354 13.8455 35.2711 13.6275 34.7782 13.5838C34.2852 13.5401 33.7928 13.6735 33.3814 13.962L26.5868 18.2524C26.6626 18.6877 26.6454 19.1353 26.5365 19.5627C26.4275 19.9902 26.2295 20.3869 25.9567 20.7242C25.684 21.0614 25.3432 21.3308 24.9592 21.5129C24.5752 21.695 24.1575 21.7851 23.7362 21.7769H18.1721V20.4671H23.7362C24.1745 20.4671 24.5948 20.2842 24.9047 19.9587C25.2146 19.6332 25.3888 19.1918 25.3888 18.7315C25.3888 18.2712 25.2146 17.8297 24.9047 17.5042C24.5948 17.1787 24.1745 16.9958 23.7362 16.9958H18.2948C18.2948 16.9958 18.2426 16.9434 18.1721 16.8644C17.0243 15.5799 15.4577 14.7968 13.7846 14.6714C11.4028 14.6714 9.78276 15.4673 5.49268 19.8276L11.8439 26.499H22.5651C25.3737 26.499 25.7253 26.499 27.7911 24.5995C28.8379 23.6365 35.8677 17.0482 35.8677 17.0482C36.255 16.701 36.4961 16.2073 36.5387 15.6744C36.5812 15.1415 36.4218 14.6125 36.095 14.2024Z" fill="#A6DAF0"/>
<path d="M26.1291 17.0132L28.9709 15.2185C29.1692 14.3976 29.1817 13.5394 29.0076 12.7124C28.8335 11.8855 28.4776 11.1128 27.9682 10.4562C27.4589 9.79966 26.8103 9.27738 26.0744 8.93118C25.3385 8.58498 24.5356 8.42448 23.7301 8.46251C22.9245 8.50053 22.1386 8.73603 21.4352 9.15017C20.7319 9.56431 20.1305 10.1456 19.6793 10.8475C19.2281 11.5494 18.9396 12.3525 18.8368 13.1925C18.734 14.0325 18.8199 14.8862 19.0874 15.6851H23.7362C24.2078 15.6854 24.6723 15.8065 25.0892 16.038C25.5062 16.2694 25.8631 16.6042 26.1291 17.0132Z" fill="#A6DAF0"/>
<path d="M3.44555 19.5334L0 23.1523L9.37587 33.0001L12.8214 29.3812L3.44555 19.5334Z" fill="#A6DAF0"/>
</svg>
