<svg width="32" height="35" viewBox="0 0 32 35" fill="none" xmlns="http://www.w3.org/2000/svg">
<path d="M15.1302 32.3568V27.7995H4.92188V25.1562H16.5885L19.5052 22.2396H4.92188V19.5964H22.1484L26.6146 15.1302C26.9792 14.7656 27.526 14.4922 28.0729 14.401V2.82552H17.6823C17.0443 1.27604 15.7682 0 14.0365 0C12.3047 0 11.0286 1.27604 10.3906 2.82552H0V35H27.9818V25.2474L20.8724 32.3568H15.1302ZM8.47656 5.65104H12.6693V4.28385C12.6693 3.46354 13.3073 2.91667 14.0365 2.91667C14.7656 2.91667 15.4036 3.55469 15.4036 4.28385V5.65104H19.5964V8.47656H8.47656V5.65104ZM4.92188 14.0365H23.151V16.6797H4.92188V14.0365Z" fill="#A6DAF0"/>
<path d="M16.9531 27.3438V30.5339H20.1432L28.3464 22.3307L25.1562 19.1406L16.9531 27.3438Z" fill="#A6DAF0"/>
<path d="M27.8909 16.4063L26.2502 18.0469L29.4403 21.237L31.081 19.5964C31.3544 19.3229 31.3544 18.776 31.081 18.5026L28.9846 16.4063C28.7112 16.1328 28.1643 16.1328 27.8909 16.4063Z" fill="#A6DAF0"/>
</svg>
