<svg width="35" height="35" viewBox="0 0 35 35" fill="none" xmlns="http://www.w3.org/2000/svg">
<path d="M24.6587 0.000290201C23.3204 -0.0100448 21.9943 0.255773 20.7634 0.781129C19.5324 1.30649 18.4231 2.08009 17.5047 3.05359L2.92065 17.6366C1.56206 19.03 0.626738 20.7803 0.223349 22.6842C-0.18004 24.588 -0.0349345 26.5673 0.641806 28.3919C0.641806 28.3919 0.698922 28.6136 0.738613 28.7104C0.852742 29.0239 0.989603 29.3287 1.14811 29.6223C1.27396 29.8498 1.41046 30.0889 1.55857 30.3058C1.94563 30.948 2.40419 31.5442 2.92549 32.0832C4.8341 33.9585 7.40473 35.0065 10.0805 35C11.7581 34.9728 13.3998 34.5098 14.8444 33.6563C15.0612 33.543 15.2713 33.423 15.4824 33.2923C15.5569 33.241 15.6363 33.2071 15.7098 33.1558C16.2838 32.7861 16.8184 32.3586 17.3052 31.8799L26.0556 23.1295L26.0314 23.1508L31.8137 17.3627C33.7063 15.4347 34.7667 12.841 34.7667 10.1394C34.7667 7.43775 33.7063 4.84404 31.8137 2.91612C29.9048 1.04128 27.3343 -0.00626998 24.6587 0.000290201ZM24.6587 2.91612C25.6153 2.90335 26.5639 3.09147 27.4432 3.46834C28.3225 3.84521 29.1129 4.40243 29.7634 5.10397C31.0962 6.49611 31.8402 8.34905 31.8402 10.2764C31.8402 12.2037 31.0962 14.0566 29.7634 15.4488L24.0692 21.1459L15.9093 12.9879L3.01165 26.0182C2.81384 24.8613 2.88799 23.6743 3.22823 22.5511C3.56848 21.4279 4.16548 20.3993 4.97199 19.5466L19.555 4.96747C20.9235 3.64406 22.755 2.90792 24.6587 2.91612Z" fill="#A6DAF0"/>
</svg>
