<svg width="28" height="35" viewBox="0 0 28 35" fill="none" xmlns="http://www.w3.org/2000/svg">
<path d="M14.001 18.3652C16.2091 18.3652 18.3269 17.4881 19.8883 15.9268C21.4498 14.3654 22.3272 12.2478 22.3274 10.0397V0H5.67456V10.0397C5.67456 11.1331 5.88994 12.2158 6.30839 13.2259C6.72684 14.2361 7.34018 15.1539 8.11337 15.927C8.88656 16.7001 9.80446 17.3134 10.8147 17.7317C11.8249 18.1501 12.9076 18.3653 14.001 18.3652ZM10.6484 4.12353H12.8829V1.89179H15.1182V4.12353H17.3526V6.35798H15.1182V8.59333H12.8829V6.36159H10.6484V4.12353Z" fill="#A6DAF0"/>
<path d="M14.0009 20.7231C12.1623 20.723 10.3417 21.0851 8.64306 21.7886C6.94439 22.4921 5.40094 23.5233 4.10082 24.8233C2.80071 26.1234 1.7694 27.6667 1.06577 29.3654C0.362151 31.064 -3.81359e-09 32.8846 0 34.7231C0 34.8133 0.0126247 34.9035 0.0144281 35H27.9865C27.9865 34.9098 28.0009 34.8196 28.0009 34.7231C28.0007 31.0102 26.5256 27.4494 23.9001 24.8239C21.2747 22.1985 17.7139 20.7234 14.0009 20.7231Z" fill="#A6DAF0"/>
</svg>
