<svg width="40" height="35" viewBox="0 0 40 35" fill="none" xmlns="http://www.w3.org/2000/svg">
<path d="M11.9219 20.5625C18.5061 20.5625 23.8438 18.9465 23.8438 16.9531C23.8438 14.9597 18.5061 13.3438 11.9219 13.3438C5.3376 13.3438 0 14.9597 0 16.9531C0 18.9465 5.3376 20.5625 11.9219 20.5625Z" fill="#A6DAF0"/>
<path d="M0 20.3438V24.0625C0 25.4844 4.8125 27.6719 11.9219 27.6719C19.0312 27.6719 23.8438 25.4844 23.8438 24.0625V20.3438C21.2188 22.0938 16.5156 22.9688 11.9219 22.9688C7.32812 22.9688 2.73438 22.0938 0 20.3438Z" fill="#A6DAF0"/>
<path d="M0 27.6719V31.3906C0 32.8125 4.8125 35 11.9219 35C19.0312 35 23.8438 32.8125 23.8438 31.3906V27.6719C21.1094 29.3125 16.5156 30.1875 11.9219 30.1875C7.32812 30.1875 2.73438 29.3125 0 27.6719Z" fill="#A6DAF0"/>
<path d="M27.6719 7.21875C34.2561 7.21875 39.5938 5.60278 39.5938 3.60937C39.5938 1.61597 34.2561 0 27.6719 0C21.0876 0 15.75 1.61597 15.75 3.60937C15.75 5.60278 21.0876 7.21875 27.6719 7.21875Z" fill="#A6DAF0"/>
<path d="M27.6719 28.9844C34.8906 28.9844 39.5937 26.7969 39.5937 25.375V21.6562C36.8594 23.2969 32.2656 24.1719 27.6719 24.1719C27.2344 24.1719 26.7969 24.1719 26.3594 24.1719V28.9844C26.6875 28.9844 27.125 28.9844 27.6719 28.9844Z" fill="#A6DAF0"/>
<path d="M15.75 7.10938V10.8281C15.75 10.9375 15.75 10.9375 15.75 11.0469C19.7969 11.4844 23.4063 12.5781 25.1563 14.3281C25.9219 14.4375 26.7969 14.4375 27.6719 14.4375C34.8906 14.4375 39.5938 12.25 39.5938 10.8281V7.10938C36.8594 8.75 32.2656 9.625 27.6719 9.625C23.0781 9.625 18.375 8.75 15.75 7.10938Z" fill="#A6DAF0"/>
<path d="M27.6719 21.7656C34.8906 21.7656 39.5937 19.5781 39.5937 18.1562V14.4375C36.8594 16.0781 32.2656 16.9531 27.6719 16.9531C27.2344 16.9531 26.7969 16.9531 26.3594 16.9531V21.7656C26.6875 21.6563 27.125 21.7656 27.6719 21.7656Z" fill="#A6DAF0"/>
</svg>
