<svg width="25" height="32" viewBox="0 0 25 32" fill="none" xmlns="http://www.w3.org/2000/svg">
<g clip-path="url(#clip0_2405_57)">
<path d="M12.5 15.5463C5.6072 15.5463 0 21.2627 0 28.2881V32H25V28.2881C25 21.262 19.3928 15.5463 12.5 15.5463Z" fill="#009AD8"/>
<path d="M19.3026 6.93403C19.3026 3.11065 16.251 0 12.5002 0C8.74937 0 5.69775 3.11065 5.69775 6.93403C5.69775 10.7574 8.74937 13.8681 12.5002 13.8681C16.251 13.8681 19.3026 10.7574 19.3026 6.93403Z" fill="#009AD8"/>
<path d="M15.1155 20.9281C13.1328 20.9281 12.5001 22.8516 12.5001 22.8523C12.5001 22.8523 11.8675 20.9281 9.88477 20.9281C7.902 20.9281 8.08615 23.8906 8.53461 24.8831C9.88477 27.876 12.4995 28.3041 12.5001 28.3041C12.5001 28.3041 15.1155 27.876 16.4657 24.8831C16.9135 23.8899 17.099 20.9281 15.1155 20.9281Z" fill="white"/>
</g>
<defs>
<clipPath id="clip0_2405_57">
<rect width="25" height="32" fill="white"/>
</clipPath>
</defs>
</svg>
