<svg width="49" height="33" viewBox="0 0 49 33" fill="none" xmlns="http://www.w3.org/2000/svg">
<g clip-path="url(#clip0_2405_48)">
<path d="M13.0674 20.7714C11.9938 20.3457 10.8282 20.1093 9.60899 20.1093C4.31024 20.1086 0 24.5257 0 29.955V32.8721H10.4225V29.1729C10.4225 26.04 11.4048 23.1393 13.0667 20.7714H13.0674Z" fill="#009AD8"/>
<path d="M9.60883 18.9586C12.5088 18.9586 14.8685 16.5407 14.8685 13.5693C14.8685 10.5979 12.5088 8.17999 9.60883 8.17999C6.70884 8.17999 4.34912 10.5979 4.34912 13.5693C4.34912 16.5407 6.70884 18.9586 9.60883 18.9586Z" fill="#009AD8"/>
<path d="M35.9326 20.7714C37.0062 20.3457 38.1717 20.1093 39.391 20.1093C44.6897 20.1093 49 24.5264 49 29.955V32.8721H38.5775V29.1729C38.5775 26.04 37.5952 23.1393 35.9333 20.7714H35.9326Z" fill="#009AD8"/>
<path d="M39.3911 18.9586C36.4911 18.9586 34.1313 16.5407 34.1313 13.5693C34.1313 10.5979 36.4911 8.17999 39.3911 8.17999C42.291 8.17999 44.6508 10.5979 44.6508 13.5693C44.6508 16.5407 42.291 18.9586 39.3911 18.9586Z" fill="#009AD8"/>
<path d="M24.4999 16.0321C17.4283 16.0321 11.6758 21.9264 11.6758 29.1721V33H37.3239V29.1721C37.3239 21.9264 31.5714 16.0321 24.4999 16.0321Z" fill="#009AD8"/>
<path d="M31.4786 7.15071C31.4786 3.20786 28.3478 0 24.4998 0C20.6517 0 17.521 3.20786 17.521 7.15071C17.521 11.0936 20.6517 14.3014 24.4998 14.3014C28.3478 14.3014 31.4786 11.0936 31.4786 7.15071Z" fill="#009AD8"/>
</g>
<defs>
<clipPath id="clip0_2405_48">
<rect width="49" height="33" fill="white"/>
</clipPath>
</defs>
</svg>
