<svg width="32" height="35" viewBox="0 0 32 35" fill="none" xmlns="http://www.w3.org/2000/svg">
<path d="M4.92188 27.7995V25.1562H13.763L14.7656 22.2396H4.92188V19.5964H15.6771L16.6797 16.6797H4.92188V14.0365H23.151V16.6797H20.2344L28.0729 19.3229V2.82552H17.5911C16.9531 1.27604 15.6771 0 13.9453 0C12.2135 0 10.9375 1.27604 10.2995 2.82552H0V35H27.9818V32.8125L13.2161 27.8906H4.92188V27.7995ZM8.38542 5.5599H12.5781V4.19271C12.5781 3.3724 13.2161 2.82552 13.9453 2.82552C14.6745 2.82552 15.3125 3.46354 15.3125 4.19271V5.5599H19.5052V8.38542H8.38542V5.5599Z" fill="#A6DAF0"/>
<path d="M29.8269 25.9377L16.8728 21.5654L15.1822 26.5744L28.1363 30.9466L29.8269 25.9377Z" fill="#A6DAF0"/>
<path d="M31.0352 22.2048L18.0811 17.8325L17.294 20.1643L30.2481 24.5365L31.0352 22.2048Z" fill="#A6DAF0"/>
</svg>
