<svg width="34" height="35" viewBox="0 0 34 35" fill="none" xmlns="http://www.w3.org/2000/svg">
<path d="M6.78125 17.3906C6.78125 18.1562 6.125 18.7031 5.46875 18.7031H1.3125C0.546875 18.7031 0 18.0469 0 17.3906C0 16.625 0.65625 16.0781 1.3125 16.0781H5.46875C6.125 16.0781 6.78125 16.625 6.78125 17.3906Z" fill="#A6DAF0"/>
<path d="M6.78125 10.3906C6.78125 11.1563 6.125 11.7031 5.46875 11.7031H1.3125C0.546875 11.7031 0 11.0469 0 10.3906C0 9.625 0.65625 9.07812 1.3125 9.07812H5.46875C6.125 9.07812 6.78125 9.625 6.78125 10.3906Z" fill="#A6DAF0"/>
<path d="M6.78125 24.6094C6.78125 25.375 6.125 25.9219 5.46875 25.9219H1.3125C0.546875 25.9219 0 25.2656 0 24.6094C0 23.8438 0.65625 23.2969 1.3125 23.2969H5.46875C6.125 23.2969 6.78125 23.8438 6.78125 24.6094Z" fill="#A6DAF0"/>
<path d="M30.0781 0H2.73438V7.54687H5.46875C7 7.54687 8.20313 8.75 8.20313 10.2812C8.20313 11.8125 6.89062 13.125 5.35938 13.125H2.625V14.6562H5.35938C6.89062 14.6562 8.09375 15.8594 8.09375 17.3906C8.09375 18.9219 6.89062 20.125 5.35938 20.125H2.625V21.875H5.35938C6.89062 21.875 8.09375 23.0781 8.09375 24.6094C8.09375 26.1406 6.89062 27.3438 5.35938 27.3438H2.625V35H30.0781C31.8281 35 33.25 33.5781 33.25 31.8281V3.0625C33.25 1.42187 31.8281 0 30.0781 0ZM17.9375 7.76563C20.125 7.76563 21.875 9.51563 21.875 11.7031C21.875 13.8906 20.125 15.6406 17.9375 15.6406C15.75 15.6406 14 13.8906 14 11.7031C14 9.51563 15.75 7.76563 17.9375 7.76563ZM24.5 26.4688H11.375V23.4063C11.375 19.7969 14.3281 16.8438 17.9375 16.8438C21.5469 16.8438 24.5 19.7969 24.5 23.4063V26.4688Z" fill="#A6DAF0"/>
</svg>
