<svg width="29" height="35" viewBox="0 0 29 35" fill="none" xmlns="http://www.w3.org/2000/svg">
<path d="M15.8458 5.48502C15.8458 5.0497 15.8458 4.70144 15.9328 4.26611H0V34.9999H26.7289V11.7537C25.6841 12.3631 24.3781 12.7114 23.0721 12.7114C19.0672 12.7114 15.8458 9.48999 15.8458 5.48502ZM22.1144 28.2089H4.70149V25.684H22.1144V28.2089ZM22.1144 22.8109H4.70149V20.286H22.1144V22.8109ZM22.1144 17.4999H4.70149V14.9751H22.1144V17.4999Z" fill="#A6DAF0"/>
<path d="M23.0722 0C20.025 0 17.5872 2.43781 17.5872 5.48507C17.5872 8.53234 20.025 10.9701 23.0722 10.9701C26.1195 10.9701 28.5573 8.53234 28.5573 5.48507C28.5573 2.43781 26.1195 0 23.0722 0ZM22.3757 4.61443C22.5498 4.70149 22.811 4.78856 23.1593 4.87562C23.8558 5.04975 24.3782 5.22388 24.6394 5.48507C24.9006 5.74627 25.0747 6.09453 25.0747 6.61691C25.0747 7.05224 24.9006 7.4005 24.6394 7.66169C24.3782 7.92289 23.9429 8.09702 23.4205 8.09702V9.14179H22.724V8.09702C22.1145 8.00995 21.6792 7.83582 21.3309 7.57463C20.9827 7.31343 20.8085 6.87811 20.8085 6.35572H22.0275C22.0275 6.61691 22.1145 6.87811 22.2886 6.96517C22.4628 7.05224 22.724 7.1393 23.0722 7.1393C23.3334 7.1393 23.5076 7.05224 23.5946 6.96517C23.7687 6.87811 23.7687 6.70398 23.7687 6.61691C23.7687 6.44279 23.6817 6.26866 23.5076 6.18159C23.3334 6.09453 23.0722 6.00746 22.724 5.9204C22.3757 5.83333 22.1145 5.74627 21.8533 5.6592C21.5921 5.57214 21.418 5.48507 21.2439 5.31095C21.0697 5.22388 20.9827 5.04975 20.8956 4.87562C20.8086 4.70149 20.8085 4.52736 20.8085 4.26617C20.8085 3.83085 20.9827 3.48259 21.2439 3.22139C21.5921 2.9602 21.9404 2.78607 22.5498 2.699V1.82836H23.2464V2.78607C23.7688 2.87313 24.2041 3.04726 24.4653 3.30846C24.7265 3.56965 24.9006 3.91791 24.9006 4.35323H23.7687C23.7687 4.1791 23.6817 4.00497 23.5076 3.83085C23.3334 3.74378 23.1593 3.65672 22.8981 3.65672C22.6369 3.65672 22.4628 3.74378 22.3757 3.83085C22.2016 3.91791 22.2016 4.09204 22.2016 4.1791C22.1145 4.4403 22.2016 4.52736 22.3757 4.61443Z" fill="#A6DAF0"/>
</svg>
